<svg width="257" height="71" viewBox="0 0 257 71" fill="none" xmlns="http://www.w3.org/2000/svg">
<path d="M95.1477 49.7734H89.6877L77.3247 31.0924V49.7734H71.8647V22.5124H77.3247L89.6877 41.2324V22.5124H95.1477V49.7734ZM120.628 38.5024C120.628 39.2824 120.576 39.9844 120.472 40.6084H104.677C104.807 42.1684 105.353 43.3904 106.315 44.2744C107.277 45.1584 108.46 45.6004 109.864 45.6004C111.892 45.6004 113.335 44.7294 114.193 42.9874H120.082C119.458 45.0674 118.262 46.7834 116.494 48.1354C114.726 49.4614 112.555 50.1244 109.981 50.1244C107.901 50.1244 106.029 49.6694 104.365 48.7594C102.727 47.8234 101.44 46.5104 100.504 44.8204C99.5944 43.1304 99.1394 41.1804 99.1394 38.9704C99.1394 36.7344 99.5944 34.7714 100.504 33.0814C101.414 31.3914 102.688 30.0914 104.326 29.1814C105.964 28.2714 107.849 27.8164 109.981 27.8164C112.035 27.8164 113.868 28.2584 115.48 29.1424C117.118 30.0264 118.379 31.2874 119.263 32.9254C120.173 34.5374 120.628 36.3964 120.628 38.5024ZM114.973 36.9424C114.947 35.5384 114.44 34.4204 113.452 33.5884C112.464 32.7304 111.255 32.3014 109.825 32.3014C108.473 32.3014 107.329 32.7174 106.393 33.5494C105.483 34.3554 104.924 35.4864 104.716 36.9424H114.973ZM154.566 28.1674L148.248 49.7734H142.359L138.42 34.6804L134.481 49.7734H128.553L122.196 28.1674H127.734L131.556 44.6254L135.69 28.1674H141.462L145.518 44.5864L149.34 28.1674H154.566Z" fill="white"/>
<path d="M172.964 35.8114C174.498 36.0974 175.759 36.8644 176.747 38.1124C177.735 39.3604 178.229 40.7904 178.229 42.4024C178.229 43.8584 177.865 45.1454 177.137 46.2634C176.435 47.3554 175.408 48.2134 174.056 48.8374C172.704 49.4614 171.105 49.7734 169.259 49.7734H157.52V22.5514H168.752C170.598 22.5514 172.184 22.8504 173.51 23.4484C174.862 24.0464 175.876 24.8784 176.552 25.9444C177.254 27.0104 177.605 28.2194 177.605 29.5714C177.605 31.1574 177.176 32.4834 176.318 33.5494C175.486 34.6154 174.368 35.3694 172.964 35.8114ZM162.98 33.7834H167.972C169.272 33.7834 170.273 33.4974 170.975 32.9254C171.677 32.3274 172.028 31.4824 172.028 30.3904C172.028 29.2984 171.677 28.4534 170.975 27.8554C170.273 27.2574 169.272 26.9584 167.972 26.9584H162.98V33.7834ZM168.479 45.3274C169.805 45.3274 170.832 45.0154 171.56 44.3914C172.314 43.7674 172.691 42.8834 172.691 41.7394C172.691 40.5694 172.301 39.6594 171.521 39.0094C170.741 38.3334 169.688 37.9954 168.362 37.9954H162.98V45.3274H168.479ZM181.177 38.8924C181.177 36.7084 181.606 34.7714 182.464 33.0814C183.348 31.3914 184.531 30.0914 186.013 29.1814C187.521 28.2714 189.198 27.8164 191.044 27.8164C192.656 27.8164 194.06 28.1414 195.256 28.7914C196.478 29.4414 197.453 30.2604 198.181 31.2484V28.1674H203.68V49.7734H198.181V46.6144C197.479 47.6284 196.504 48.4734 195.256 49.1494C194.034 49.7994 192.617 50.1244 191.005 50.1244C189.185 50.1244 187.521 49.6564 186.013 48.7204C184.531 47.7844 183.348 46.4714 182.464 44.7814C181.606 43.0654 181.177 41.1024 181.177 38.8924ZM198.181 38.9704C198.181 37.6444 197.921 36.5134 197.401 35.5774C196.881 34.6154 196.179 33.8874 195.295 33.3934C194.411 32.8734 193.462 32.6134 192.448 32.6134C191.434 32.6134 190.498 32.8604 189.64 33.3544C188.782 33.8484 188.08 34.5764 187.534 35.5384C187.014 36.4744 186.754 37.5924 186.754 38.8924C186.754 40.1924 187.014 41.3364 187.534 42.3244C188.08 43.2864 188.782 44.0274 189.64 44.5474C190.524 45.0674 191.46 45.3274 192.448 45.3274C193.462 45.3274 194.411 45.0804 195.295 44.5864C196.179 44.0664 196.881 43.3384 197.401 42.4024C197.921 41.4404 198.181 40.2964 198.181 38.9704ZM220.985 27.8554C223.559 27.8554 225.639 28.6744 227.225 30.3124C228.811 31.9244 229.604 34.1864 229.604 37.0984V49.7734H224.144V37.8394C224.144 36.1234 223.715 34.8104 222.857 33.9004C221.999 32.9644 220.829 32.4964 219.347 32.4964C217.839 32.4964 216.643 32.9644 215.759 33.9004C214.901 34.8104 214.472 36.1234 214.472 37.8394V49.7734H209.012V28.1674H214.472V30.8584C215.2 29.9224 216.123 29.1944 217.241 28.6744C218.385 28.1284 219.633 27.8554 220.985 27.8554ZM247.588 49.7734L240.256 40.5694V49.7734H234.796V20.9134H240.256V37.3324L247.51 28.1674H254.608L245.092 39.0094L254.686 49.7734H247.588Z" fill="#5CE1E6"/>
<mask id="path-2-inside-1_2108_141" fill="white">
<path fill-rule="evenodd" clip-rule="evenodd" d="M49.1193 35.8472C62.7706 25.4217 57.4101 0.961914 37.7198 0.961914H0.425079V35.8472V70.7324H37.7198C57.4101 70.7324 62.7706 46.2727 49.1193 35.8472Z"/>
</mask>
<path d="M49.1193 35.8472L47.2984 33.4629L44.1765 35.8472L47.2984 38.2314L49.1193 35.8472ZM0.425079 0.961914V-2.03809H-2.57492V0.961914H0.425079ZM0.425079 70.7324H-2.57492V73.7324H0.425079V70.7324ZM37.7198 3.96191C46.0802 3.96191 51.2655 9.04261 53.0356 15.3103C54.8428 21.7096 53.0162 29.0963 47.2984 33.4629L50.9401 38.2314C58.8736 32.1726 61.1924 22.1166 58.8097 13.6796C56.3898 5.1111 49.0497 -2.03809 37.7198 -2.03809V3.96191ZM0.425079 3.96191H37.7198V-2.03809H0.425079V3.96191ZM3.42508 35.8472V0.961914H-2.57492V35.8472H3.42508ZM-2.57492 35.8472V70.7324H3.42508V35.8472H-2.57492ZM0.425079 73.7324H37.7198V67.7324H0.425079V73.7324ZM37.7198 73.7324C49.0497 73.7324 56.3898 66.5832 58.8097 58.0147C61.1924 49.5778 58.8736 39.5217 50.9401 33.4629L47.2984 38.2314C53.0162 42.5981 54.8428 49.9847 53.0356 56.384C51.2655 62.6517 46.0802 67.7324 37.7198 67.7324V73.7324Z" fill="white" mask="url(#path-2-inside-1_2108_141)"/>
<path d="M0.425079 0.961914V70.7324H8.31368V22.9585L26.2073 70.7324H34.0959V0.961914H26.2073V49.2513L8.31368 0.961914H0.425079Z" fill="#5CE1E6"/>
</svg>
